<svg width="162" height="162" viewBox="0 0 162 162" fill="none" xmlns="http://www.w3.org/2000/svg">
<path d="M63.39 35H73.31V39.15H67.54V43.3H73.31V47.45H63.39V35Z" fill="#0C73B8"/>
<path d="M75.3 35H85.22V38.61H79.45V39.33H85.22V47.63H75.3V43.84H81.07V43.12H75.3V35Z" fill="#0C73B8"/>
<path d="M87.2 35H97.12V38.61H91.35V39.33H97.12V47.63H87.2V43.84H92.97V43.12H87.2V35Z" fill="#0C73B8"/>
<path d="M48 53.1499L53.95 119.93L80.67 127.35L107.46 119.92L113.42 53.1499H48ZM99.72 83.3799L99.52 85.5799L97.6 107.14L97.48 108.52L80.72 113.17L80.68 113.18L63.9 108.52L62.75 95.6599H70.97L71.55 102.19L80.67 104.65L89.8 102.18L90.75 91.5599H62.37L61.64 83.3699H91.47L92.22 74.9799H60.92L60.18 66.7899H101.2L99.72 83.3699V83.3799Z" fill="#0C73B8"/>
</svg>
