 <svg xmlns="http://www.w3.org/2000/svg" width="408" height="819" viewBox="0 0 408 819"
                            fill="none">
                            <g filter="url(#filter0_d_69_34)">
                                <path fill-rule="evenodd" clip-rule="evenodd"
                                    d="M222.116 30L222.116 298.714H134.656H133.583L132.844 299.492L107.928 325.702H46.0282V327.672C45.4935 323.962 42.3015 321.111 38.4437 321.111C34.2114 321.111 30.7804 324.542 30.7804 328.775C30.7804 333.007 34.2114 336.438 38.4437 336.438C42.3015 336.438 45.4935 333.587 46.0282 329.877V330.702H109.001H110.073L110.813 329.925L135.729 303.714H222.116L222.116 564.81L188.768 602.081L188.131 602.793V603.748V789H193.131V604.703L226.479 567.432L227.116 566.72V565.765V553.355L303.018 641.695L303.767 642.565H304.915H353.762C354.553 645.845 357.506 648.282 361.029 648.282C365.158 648.282 368.505 644.935 368.505 640.806C368.505 636.677 365.158 633.33 361.029 633.33C358.061 633.33 355.497 635.06 354.29 637.565H306.063L227.512 546.143L227.116 546.484L227.116 152.447H304.458L362.574 174.402C362.562 174.579 362.556 174.757 362.556 174.936C362.556 179.169 365.987 182.6 370.219 182.6C374.452 182.6 377.883 179.169 377.883 174.936C377.883 170.704 374.452 167.273 370.219 167.273C367.964 167.273 365.936 168.247 364.534 169.798L305.798 147.609L305.371 147.447H304.915H227.116V30H222.116ZM367.556 174.936C367.556 176.407 368.748 177.6 370.219 177.6C371.69 177.6 372.883 176.407 372.883 174.936C372.883 173.465 371.69 172.273 370.219 172.273C368.748 172.273 367.556 173.465 367.556 174.936ZM35.7804 328.775C35.7804 330.245 36.9728 331.438 38.4437 331.438C39.9146 331.438 41.107 330.245 41.107 328.775C41.107 327.304 39.9146 326.111 38.4437 326.111C36.9728 326.111 35.7804 327.304 35.7804 328.775ZM361.029 643.282C359.662 643.282 358.553 642.173 358.553 640.806C358.553 639.439 359.662 638.33 361.029 638.33C362.396 638.33 363.505 639.439 363.505 640.806C363.505 642.173 362.396 643.282 361.029 643.282Z"
                                    fill="#2E86D8" />
                            </g>
                            <defs>
                                <filter id="filter0_d_69_34" x="0.780396" y="0" width="407.102" height="819"
                                    filterUnits="userSpaceOnUse" color-interpolation-filters="sRGB">
                                    <feFlood flood-opacity="0" result="BackgroundImageFix" />
                                    <feColorMatrix in="SourceAlpha" type="matrix"
                                        values="0 0 0 0 0 0 0 0 0 0 0 0 0 0 0 0 0 0 127 0" result="hardAlpha" />
                                    <feOffset />
                                    <feGaussianBlur stdDeviation="15" />
                                    <feComposite in2="hardAlpha" operator="out" />
                                    <feColorMatrix type="matrix"
                                        values="0 0 0 0 0.180026 0 0 0 0 0.525431 0 0 0 0 0.847179 0 0 0 1 0" />
                                    <feBlend mode="normal" in2="BackgroundImageFix" result="effect1_dropShadow_69_34" />
                                    <feBlend mode="normal" in="SourceGraphic" in2="effect1_dropShadow_69_34"
                                        result="shape" />
                                </filter>
                            </defs>
                        </svg>