<svg width="162" height="162" viewBox="0 0 162 162" fill="none" xmlns="http://www.w3.org/2000/svg">
<g id="Frame 2">
<g id="Group">
<g id="Group_2">
<path id="Vector" d="M54.92 36.01H58.97V40.01H62.67V36.01H66.72V48.12H62.67V44.07H58.97V48.12H54.92V36.01Z" fill="#E54F26"/>
<path id="Vector_2" d="M72.0401 40.02H68.4801V36H79.6501V40.02H76.0901V48.11H72.0401V40.02Z" fill="#E54F26"/>
<path id="Vector_3" d="M81.42 36.01H85.64L88.24 40.26L90.83 36.01H95.05V48.12H91.02V42.12L88.24 46.42H88.17L85.38 42.12V48.12H81.42V36.01Z" fill="#E54F26"/>
<path id="Vector_4" d="M97.0601 36.01H101.11V44.12H106.8V48.12H97.0601V36.01Z" fill="#E54F26"/>
</g>
<path id="Vector_5" d="M49 53.6499L54.79 118.58L80.77 125.79L106.82 118.57L112.62 53.6499H49ZM100.53 69.0599L100.17 73.0999L100.01 74.8899H69.54L70.27 83.0399H99.29L99.1 85.1799L97.23 106.14L97.11 107.49L80.81 112.01L80.77 112.02L64.46 107.49L63.34 94.9899H71.33L71.9 101.34L80.77 103.73L89.65 101.33L90.57 90.9999H62.98L61.02 69.0599L60.83 66.9199H100.72L100.53 69.0599Z" fill="#E54F26"/>
</g>
</g>
</svg>
