  <svg xmlns="http://www.w3.org/2000/svg" width="341" height="355" viewBox="0 0 341 355" fill="none">
                        <g filter="url(#filter0_d_197_120)">
                            <path fill-rule="evenodd" clip-rule="evenodd"
                                d="M336.472 34.5552L336.472 34.9708L336.472 84.0227L336.472 84.4423L336.173 84.7362L310.705 109.744L310.705 314.616C313.388 315.186 315.364 317.649 315.364 320.538C315.364 323.838 312.784 326.583 309.517 326.583C306.251 326.583 303.67 323.838 303.67 320.538C303.67 317.516 305.833 314.96 308.705 314.55L308.705 109.324L308.705 108.905L309.004 108.611L334.472 83.6031L334.472 35.3863L300.89 1.95834L300.595 1.66517L300.595 1.2496L300.595 -93.7838L300.595 -94.2524L300.955 -94.5523L322.693 -112.654L322.693 -186.528L324.693 -186.528L324.693 -112.185L324.693 -111.716L324.333 -111.417L302.595 -93.3152L302.595 0.834029L336.178 34.262L336.472 34.5552ZM224.752 -186.528L224.752 135.969L202.642 112.476L202.642 26.7557L214.956 17.0959L215.339 16.7956L215.339 16.3091L215.339 -77.2053L215.339 -77.5955L215.074 -77.8826L189.936 -105.187L189.936 -186.528L187.936 -186.528L187.936 -104.796L187.936 -104.406L188.2 -104.119L213.339 -76.8151L213.339 15.8226L201.025 25.4825L200.642 25.7827L200.642 26.2692L200.642 112.872L200.642 113.269L200.914 113.558L224.752 138.888L224.752 156.932L223.094 158.658L182.81 120.116L182.81 -59.5744L182.81 -60.0012L182.502 -60.2964L118.016 -122.084L118.016 -186.528L116.016 -186.528L116.016 -121.657L116.016 -121.23L116.324 -120.935L180.81 -59.1476L180.81 120.543L180.81 120.97L181.118 121.266L221.709 160.101L202.214 180.392L201.935 180.683L201.935 181.085L201.935 270.513C199.002 270.868 196.778 273.453 196.778 276.517C196.778 279.818 199.359 282.562 202.625 282.562C205.892 282.562 208.472 279.818 208.472 276.517C208.472 273.673 206.556 271.241 203.935 270.624L203.935 181.488L223.154 161.483L226.465 164.652L226.465 263.099L226.465 263.466L226.703 263.745L237.515 276.496L237.515 350.472L239.515 350.472L239.515 276.129L239.515 275.762L239.277 275.483L228.465 262.732L228.465 164.224L228.465 163.797L228.157 163.502L224.539 160.041L226.474 158.028L226.752 157.737L226.752 157.335L226.752 141.013L244.641 160.021L244.641 262.848C241.863 263.341 239.794 265.85 239.794 268.806C239.794 272.106 242.374 274.851 245.641 274.851C248.907 274.851 251.488 272.106 251.488 268.806C251.488 265.85 249.419 263.341 246.641 262.848L246.641 159.624L246.641 159.228L246.369 158.939L226.752 138.095L226.752 -186.528L224.752 -186.528ZM158.279 -49.6143L158.279 -50.0169L158 -50.3071L97.8948 -112.859L97.8949 -186.528L95.8949 -186.528L95.8948 -112.456L95.8948 -112.054L96.1738 -111.763L156.279 -49.2117L156.279 110.997L138.449 133.716L140.023 134.951L158.066 111.96L158.279 111.688L158.279 111.343L158.279 -49.6143ZM142.811 -38.8022L142.811 -38.363L142.811 3.27851L142.811 3.69115L142.52 3.98371L114.093 32.5625L114.093 121.537L132.056 133.501L130.947 135.166L112.539 122.905L112.093 122.608L112.093 122.073L112.093 32.1498L112.093 31.7372L112.384 31.4446L140.811 2.86587L140.811 -37.9238L76.3403 -97.1595L76.0169 -97.4567L76.0169 -97.8959L76.0169 -186.528L78.0169 -186.528L78.0169 -98.3351L142.487 -39.0994L142.811 -38.8022ZM113.364 134.333L113.364 133.916L113.068 133.623L97.8948 118.586L97.8948 20.8986L97.8948 20.5062L97.628 20.2185L50.9778 -30.0756L50.9778 -186.528L48.9778 -186.528L48.9778 -29.6832L48.9778 -29.2908L49.2447 -29.0032L95.8948 21.2909L95.8948 119.002L95.8948 119.419L96.1909 119.713L111.364 134.75L111.364 226.307L113.364 226.307L113.364 134.333ZM15.9777 116.417L-3.16017 99.8381L-3.50541 99.539L-3.50541 99.0822L-3.50541 38.6966L-24.5808 17.006L-24.8636 16.7149L-24.8636 16.3091L-24.8636 -186.528L-22.8636 -186.528L-22.8636 15.9033L-1.78819 37.5939L-1.50541 37.885L-1.50541 38.2908L-1.50541 98.6254L17.2872 114.905L15.9777 116.417ZM-117.855 -95.5957L-117.855 -96.0512L-118.198 -96.3502L-167.534 -139.272L-168.846 -137.763L-119.855 -95.1402L-119.855 68.7993L-138.737 89.2024L-137.269 90.5608L-118.121 69.8703L-117.855 69.5827L-117.855 69.191L-117.855 -95.5957ZM309.517 316.492C311.604 316.492 313.364 318.265 313.364 320.538C313.364 322.81 311.604 324.583 309.517 324.583C307.43 324.583 305.67 322.81 305.67 320.538C305.67 318.265 307.43 316.492 309.517 316.492ZM304.285 -152.739L304.285 -186.528L306.285 -186.528L306.285 -152.318L306.285 -151.898L305.985 -151.604L281.247 -127.367L281.247 3.64389L306.016 30.1873L306.285 30.4754L306.285 30.8696L306.285 81.4513L306.285 81.8626L305.996 82.1549L281.247 107.153L281.247 147.732L293.487 160.472L293.766 160.762L293.766 161.165L293.766 262.848C296.544 263.341 298.613 265.85 298.613 268.806C298.613 272.106 296.033 274.851 292.766 274.851C289.5 274.851 286.919 272.106 286.919 268.806C286.919 265.85 288.988 263.341 291.766 262.848L291.766 161.567L279.526 148.827L279.247 148.537L279.247 148.134L279.247 106.742L279.247 106.331L279.537 106.039L304.285 81.04L304.285 31.2636L279.516 4.72024L279.247 4.4321L279.247 4.03799L279.247 -127.787L279.247 -128.207L279.548 -128.501L304.285 -152.739ZM292.766 264.76C294.854 264.76 296.613 266.533 296.613 268.806C296.613 271.078 294.854 272.851 292.766 272.851C290.679 272.851 288.919 271.078 288.919 268.806C288.919 266.533 290.679 264.76 292.766 264.76ZM245.641 264.76C247.728 264.76 249.488 266.533 249.488 268.806C249.488 271.078 247.728 272.851 245.641 272.851C243.554 272.851 241.794 271.078 241.794 268.806C241.794 266.533 243.554 264.76 245.641 264.76ZM202.625 272.472C204.712 272.472 206.472 274.245 206.472 276.517C206.472 278.79 204.712 280.562 202.625 280.562C200.538 280.562 198.778 278.79 198.778 276.517C198.778 274.245 200.538 272.472 202.625 272.472ZM149.44 -46.1827L149.44 -45.7735L149.44 3.27848L149.44 3.68101L149.161 3.97129L137.11 16.5155L137.284 108.822C140.397 108.994 142.811 111.666 142.811 114.858C142.811 118.158 140.23 120.903 136.963 120.903C133.697 120.903 131.116 118.158 131.116 114.858C131.116 112.149 132.855 109.814 135.285 109.064L135.109 16.1157L135.108 15.7121L135.388 15.421L147.44 2.87595L147.44 -45.3642L83.663 -110.225L83.376 -110.517L83.376 -110.927L83.376 -186.528L85.376 -186.528L85.376 -111.336L149.153 -46.4746L149.44 -46.1827ZM136.963 110.813C139.051 110.813 140.811 112.586 140.811 114.858C140.811 117.13 139.051 118.903 136.963 118.903C134.876 118.903 133.116 117.13 133.116 114.858C133.116 112.586 134.876 110.813 136.963 110.813ZM170.058 -56.1364L170.058 -55.7444L170.058 121.303L170.058 121.722L169.759 122.016L143.551 147.783L143.551 250.109C145.948 250.879 147.657 253.197 147.657 255.884C147.657 259.184 145.077 261.929 141.81 261.929C138.544 261.929 135.963 259.184 135.963 255.884C135.963 252.671 138.408 249.985 141.551 249.844L141.551 147.364L141.551 146.945L141.849 146.651L168.058 120.883L168.058 -55.3524L108.68 -119.448L108.414 -119.735L108.414 -120.127L108.414 -186.528L110.414 -186.528L110.414 -120.519L169.792 -56.424L170.058 -56.1364ZM141.81 251.838C143.898 251.838 145.657 253.611 145.657 255.884C145.657 258.156 143.898 259.929 141.81 259.929C139.723 259.929 137.963 258.156 137.963 255.884C137.963 253.611 139.723 251.838 141.81 251.838ZM48.9778 -9.90294L39.4793 -19.7898L39.2004 -20.08L39.2004 -20.4826L39.2004 -186.528L41.2004 -186.528L41.2004 -20.8851L64.9116 3.79531C65.7487 3.31365 66.715 3.03798 67.7502 3.03798C71.0168 3.03798 73.5973 5.78263 73.5973 9.08313C73.5973 12.3836 71.0168 15.1283 67.7502 15.1283C64.4836 15.1283 61.9032 12.3836 61.9032 9.08313C61.9032 7.55725 62.4548 6.1502 63.3706 5.07822L50.9778 -7.82118L50.9778 133.96L73.3524 159.739L73.5972 160.021L73.5972 160.394L73.5972 240.725C76.3753 241.218 78.4443 243.727 78.4443 246.683C78.4443 249.983 75.8638 252.728 72.5972 252.728C69.3306 252.728 66.7502 249.983 66.7502 246.683C66.7502 243.727 68.8192 241.218 71.5972 240.725L71.5972 160.768L49.2226 134.989L48.9778 134.707L48.9778 134.333L48.9778 -9.90294ZM76.4443 246.683C76.4443 244.411 74.6845 242.638 72.5972 242.638C70.51 242.638 68.7502 244.411 68.7502 246.683C68.7502 248.955 70.51 250.728 72.5972 250.728C74.6845 250.728 76.4443 248.955 76.4443 246.683ZM67.7502 5.03798C69.8375 5.03798 71.5973 6.81092 71.5973 9.08313C71.5973 11.3554 69.8375 13.1283 67.7502 13.1283C65.663 13.1283 63.9032 11.3554 63.9032 9.08313C63.9032 6.81092 65.663 5.03798 67.7502 5.03798ZM20.7922 -132.663L20.7922 -186.528L22.7922 -186.528L22.7922 -132.246L22.7922 -131.83L22.4962 -131.536L-11.0848 -98.2494L-11.0848 2.90009L19.1355 37.1123C19.9295 36.6929 20.8312 36.4554 21.7922 36.4554C25.0588 36.4554 27.6392 39.2 27.6392 42.5005C27.6392 45.801 25.0588 48.5457 21.7922 48.5457C18.5256 48.5457 15.9452 45.801 15.9452 42.5005C15.9452 40.8993 16.5525 39.429 17.5509 38.3393L-12.8342 3.94052L-13.0848 3.65691L-13.0848 3.2785L-13.0848 -98.6662L-13.0848 -99.083L-12.7888 -99.3764L20.7922 -132.663ZM21.7922 38.4554C23.8795 38.4554 25.6392 40.2283 25.6392 42.5005C25.6392 44.7727 23.8794 46.5457 21.7922 46.5457C19.7049 46.5457 17.9452 44.7727 17.9452 42.5005C17.9452 40.2283 19.7049 38.4554 21.7922 38.4554ZM-27.5039 82.6979L-44.3874 68.4138L-44.7415 68.1142L-44.7415 67.6504L-44.7415 -186.528L-42.7415 -186.528L-42.7415 67.1865L-26.3345 81.0675C-25.2898 80.0304 -23.87 79.388 -22.2896 79.388C-19.023 79.388 -16.4426 82.1327 -16.4426 85.4332C-16.4426 88.7337 -19.023 91.4783 -22.2896 91.4783C-25.5562 91.4783 -28.1366 88.7337 -28.1366 85.4332C-28.1366 84.4533 -27.9092 83.5225 -27.5039 82.6979ZM-22.2896 81.388C-20.2023 81.388 -18.4426 83.161 -18.4426 85.4332C-18.4426 87.7054 -20.2023 89.4783 -22.2896 89.4783C-24.3768 89.4783 -26.1366 87.7054 -26.1366 85.4332C-26.1366 83.161 -24.3768 81.388 -22.2896 81.388ZM-30.9628 109.392L-30.9628 109.813L-30.9628 213.905C-28.1847 214.397 -26.1157 216.907 -26.1157 219.862C-26.1157 223.163 -28.6962 225.907 -31.9628 225.907C-35.2294 225.907 -37.8097 223.163 -37.8097 219.862C-37.8097 216.907 -35.7408 214.397 -32.9628 213.905L-32.9628 110.234L-79.0574 65.1975L-79.3586 64.9033L-79.3586 64.4822L-79.3586 -19.7231L-79.3586 -20.1434L-79.0583 -20.4375L-66.8397 -32.4037L-66.8397 -125.027L-91.5179 -146.189L-91.867 -146.488L-91.867 -146.948L-91.867 -186.528L-89.867 -186.528L-89.867 -147.408L-65.1888 -126.246L-64.8397 -125.947L-64.8397 -125.487L-64.8397 -31.9834L-64.8397 -31.563L-65.14 -31.2689L-77.3586 -19.3027L-77.3586 64.0612L-31.2639 109.097L-30.9628 109.392ZM-31.9628 215.817C-29.8755 215.817 -28.1157 217.59 -28.1157 219.862C-28.1157 222.134 -29.8755 223.907 -31.9628 223.907C-34.05 223.907 -35.8097 222.134 -35.8097 219.862C-35.8097 217.59 -34.05 215.817 -31.9628 215.817ZM17.6325 207.53L17.6325 207.917L17.6325 271.529L17.6325 271.954L17.327 272.248L-22.425 310.622C-21.7095 311.629 -21.2896 312.87 -21.2896 314.201C-21.2896 317.502 -23.87 320.246 -27.1366 320.246C-30.4032 320.246 -32.9836 317.502 -32.9836 314.201C-32.9836 310.901 -30.4032 308.156 -27.1366 308.156C-25.9063 308.156 -24.7733 308.545 -23.8389 309.207L15.6325 271.104L15.6325 208.304L-4.34972 186.359L-4.61031 186.072L-4.61031 185.685L-4.6103 119.002L-2.6103 119.002L-2.61031 185.298L17.3719 207.243L17.6325 207.53ZM-27.1366 310.156C-25.0493 310.156 -23.2896 311.929 -23.2896 314.201C-23.2896 316.473 -25.0493 318.246 -27.1366 318.246C-29.2238 318.246 -30.9836 316.473 -30.9836 314.201C-30.9836 311.929 -29.2238 310.156 -27.1366 310.156ZM-42.7415 118.586L-42.7415 119.002L-42.7415 262.186C-39.9635 262.679 -37.8945 265.188 -37.8945 268.144C-37.8945 271.444 -40.4749 274.189 -43.7415 274.189C-47.0081 274.189 -49.5886 271.444 -49.5886 268.144C-49.5886 265.188 -47.5195 262.679 -44.7415 262.186L-44.7415 119.419L-91.5713 72.9606L-91.867 72.6672L-91.867 72.2507L-91.867 -105.105L-181.358 -181.449L-180.06 -182.97L-90.218 -106.327L-89.867 -106.028L-89.867 -105.567L-89.867 71.8341L-43.0372 118.293L-42.7415 118.586ZM-43.7415 264.099C-41.6542 264.099 -39.8945 265.872 -39.8945 268.144C-39.8945 270.416 -41.6542 272.189 -43.7415 272.189C-45.8288 272.189 -47.5886 270.416 -47.5886 268.144C-47.5886 265.872 -45.8288 264.099 -43.7415 264.099ZM-107.546 -102.175L-107.546 -101.726L-107.546 75.3211L-107.546 75.7388L-107.843 76.0323L-137.003 104.86L-137.003 203.335C-134.567 204.08 -132.823 206.418 -132.823 209.132C-132.823 212.432 -135.403 215.177 -138.67 215.177C-141.937 215.177 -144.517 212.432 -144.517 209.132C-144.517 205.944 -142.11 203.275 -139.003 203.096L-139.003 104.442L-139.003 104.024L-138.706 103.731L-109.546 74.9036L-109.546 -101.277L-189.472 -172.261L-188.144 -173.757L-107.882 -102.474L-107.546 -102.175ZM-138.67 205.087C-136.583 205.087 -134.823 206.86 -134.823 209.132C-134.823 211.404 -136.583 213.177 -138.67 213.177C-140.757 213.177 -142.517 211.404 -142.517 209.132C-142.517 206.86 -140.757 205.087 -138.67 205.087Z"
                                fill="#2E86D8" />
                        </g>
                        <defs>
                            <filter id="filter0_d_197_120" x="-193.472" y="-190.528" width="533.944" height="545"
                                filterUnits="userSpaceOnUse" color-interpolation-filters="sRGB">
                                <feFlood flood-opacity="0" result="BackgroundImageFix" />
                                <feColorMatrix in="SourceAlpha" type="matrix"
                                    values="0 0 0 0 0 0 0 0 0 0 0 0 0 0 0 0 0 0 127 0" result="hardAlpha" />
                                <feOffset />
                                <feGaussianBlur stdDeviation="2" />
                                <feComposite in2="hardAlpha" operator="out" />
                                <feColorMatrix type="matrix"
                                    values="0 0 0 0 0.180026 0 0 0 0 0.525431 0 0 0 0 0.847179 0 0 0 0.47 0" />
                                <feBlend mode="normal" in2="BackgroundImageFix" result="effect1_dropShadow_197_120" />
                                <feBlend mode="normal" in="SourceGraphic" in2="effect1_dropShadow_197_120"
                                    result="shape" />
                            </filter>
                        </defs>
                    </svg>