<svg width="162" height="162" viewBox="0 0 162 162" fill="none" xmlns="http://www.w3.org/2000/svg">
<path d="M80.54 52.95H48L54.1 119.11L80.54 126.61L106.97 119.11L113.08 52.95H80.54ZM97.19 107.84L80.54 112.57L63.89 107.84L62.71 95.1699H70.94L71.48 101.51L80.54 104.12L89.46 101.55L90.37 91.07H62.39L62.34 91.2299L64.63 66.4599H97.57L99.38 79.43H91.08L90.78 74.68H71.32L70.94 82.97H99.48L97.19 107.84Z" fill="#E7A020"/>
<path d="M74.2 43.2H68.4199V47.35H74.2H77.2999H78.3499V35H74.2V43.2Z" fill="#E7A020"/>
<path d="M92.66 35.0601H82.5699V39.3901C83.9199 40.7401 84.62 41.3901 86.58 43.3401C85.44 43.3401 82.5699 43.3401 82.5699 43.3401V47.2901H92.66V43.3401L88.6299 39.3901H92.66V35.0601Z" fill="#E7A020"/>
</svg>
